<svg width="200" height="200" viewBox="0 0 200 200" fill="none" xmlns="http://www.w3.org/2000/svg">
<path d="M85.75 32.1667L15.1667 150C13.7115 152.52 12.9414 155.378 12.9333 158.288C12.9251 161.198 13.6791 164.059 15.1203 166.588C16.5614 169.116 18.6394 171.223 21.1476 172.699C23.6558 174.175 26.5067 174.968 29.4167 175H170.583C173.493 174.968 176.344 174.175 178.852 172.699C181.361 171.223 183.439 169.116 184.88 166.588C186.321 164.059 187.075 161.198 187.067 158.288C187.059 155.378 186.289 152.52 184.833 150L114.25 32.1667C112.764 29.7176 110.673 27.6927 108.177 26.2874C105.681 24.8821 102.865 24.1438 100 24.1438C97.1356 24.1438 94.3195 24.8821 91.8234 26.2874C89.3274 27.6927 87.2356 29.7176 85.75 32.1667V32.1667Z" stroke="#ECEEF4" stroke-width="20" stroke-linecap="round" stroke-linejoin="round"/>
<path d="M100 75V108.333" stroke="#ECEEF4" stroke-width="20" stroke-linecap="round" stroke-linejoin="round"/>
<path d="M100 141.667H100.083" stroke="#ECEEF4" stroke-width="20" stroke-linecap="round" stroke-linejoin="round"/>
</svg>
